<svg xmlns="http://www.w3.org/2000/svg" width="250" viewBox="0 0 1020 325" >
    <!-- height="100" viewbox="0 0 365 135" -->
  <!-- From https://en.wikipedia.org/wiki/File:WGBH_logo.svg -->
  <style>
      path { fill-opacity: 1; fill-rule: nonzero; stroke: none; }
      text { font-family: "Whitney SSm A", "Whitney SSm B", sans-serif; font-weight: bold; text-transform: none; }
      path,text { fill: #949599;  }
  </style>
  <g transform="translate(-125.69624,-415.13311)">
    <rect x="100" y="400" width="1100" height="300" opacity="0"/><!-- So the whole thing is clickable. -->
    <text transform="translate(290,620)" font-size="72">
      Media Library
    </text>
    <text transform="translate(290,690)" font-size="72">
      and Archives
    </text>
    <g transform="matrix(4.209543,0,0,-4.209543,-398.13887,2229.8309)">
      <g transform="translate(131.0229,423.1064)">
        <path d="m 0,0 3.226,-16.196 6.675,0 1.797,6.206 1.865,-6.206 6.573,0 1.323,6.502 c 1.15,-6.868 8.083,-7.132 10.088,-7.132 2.005,0 5.258,0.494 8.084,2.17 l 0,-1.54 11.534,0 c 3.286,0 4.272,1.046 4.994,2.558 l 0,-2.558 6.934,0 0,5.713 3.287,0 0,-5.713 6.77,0 0,16.176 -6.77,0 0,-5.796 -3.253,0 0,5.796 -6.968,0 0,-3.004 c -0.656,1.939 -1.938,3.004 -5.257,3.004 l -11.239,0 0,-2.379 c -0.952,1.117 -3.318,2.892 -8.412,2.892 -5.094,0 -6.901,-1.249 -8.774,-3.878 l 0.615,3.365 -5.455,0 -1.469,-5.895 -1.38,5.882 -5.915,0 L 7.361,-6.014 6.014,0 0,0 z m 7.162,7.305 6.025,0 0.637,-2.967 3.088,3.023 5.521,0 0.723,-3.056 3.056,3.056 5.718,0 -0.624,-2.564 c 2.399,2.005 4.305,3.188 8.314,3.188 4.008,0 5.849,-1.216 7.427,-2.859 l 2.267,2.202 8.971,0 c 2.597,0 3.384,-1.841 3.384,-3.22 l 3.32,3.22 6.177,0 0,-3.089 3.089,3.066 6.048,0 0,-16.604 -14.641,-14.386 -6.812,0 -0.006,3.114 -3.221,-3.114 -6.77,0 0,2.852 c -1.905,-2.597 -3.614,-2.852 -5.849,-2.852 l -10.351,0 0,1.964 c -0.887,-0.691 -4.338,-2.432 -9.003,-2.432 -4.667,0 -7.231,1.445 -8.479,3.385 l -3.114,-2.917 -5.613,0 -0.77,2.917 -3.024,-2.958 -5.782,0 -3.451,17.482 13.745,13.549 z" />
      </g>
      <g transform="translate(164.6726,418.1113)">
        <path d="m 0,0 6.014,0 0,-1.775 -8.183,0 0,-3.187 2.071,0 0,-1.774 c 0,-0.92 -0.526,-1.545 -2.005,-1.545 -1.478,0 -2.005,1.117 -2.005,1.643 0,0.526 0.034,6.047 0.034,6.704 0,0.657 0.493,1.709 2.037,1.709 C -0.493,1.775 0,0.953 0,0" />
      </g>
      <g transform="translate(177.0616,419.5572)">
        <path d="m 0,0 0,-2.694 c 0,0 1.348,-0.034 2.169,-0.034 0.821,0 1.479,0.494 1.479,1.348 C 3.648,-0.525 3.089,0 2.169,0 L 0,0 z" />
      </g>
      <g transform="translate(177.0616,413.0843)">
        <path d="m 0,0 0,-2.728 c 0,0 1.445,-0.033 2.268,-0.033 0.821,0 1.478,0.493 1.478,1.348 C 3.746,-0.56 3.188,0 2.268,0 L 0,0 z" />
      </g>
      <g transform="translate(187.1823,416.9614)">
        <path d="m 0,0 0,-4.338 c -0.559,1.742 -1.807,2.037 -2.661,2.334 C -1.84,-1.873 -0.492,-1.151 0,0" />
      </g>
    </g>
  </g>
</svg>
