<?xml version="1.0" encoding="UTF-8" standalone="no"?>
<svg
   xmlns="http://www.w3.org/2000/svg"
   viewBox="0 0 268 60"
   id="ov-logo">
  <!-- Used Inkscape to kern individual letters, particularly "VA" in "VAULT", and then converted to paths. -->
  <!-- Make the whole thing clickable. Extra large so we don't need to tweak it going forward. -->
  <rect
     x="0"
     y="0"
     width="1000"
     height="1000"
     opacity="0"/>
  <g transform="translate(0,30)">
    <!-- open -->
    <path d="m 15.582275,-26.335449 q 5.615235,0 9.349366,3.846435 3.762207,3.846436 3.762207,9.602051 0,5.7275392 -3.762207,9.5739747 -3.734131,3.81835939 -9.349366,3.81835939 -5.615234,0 -9.4055172,-3.81835939 -3.762207,-3.8464355 -3.762207,-9.5739747 0,-5.755615 3.762207,-9.602051 3.7902832,-3.846435 9.4055172,-3.846435 z m 0,24.1455076 q 4.351807,0 7.271729,-3.0322266 2.919922,-3.0603027 2.919922,-7.664795 0,-4.576416 -2.947998,-7.664795 -2.919922,-3.088379 -7.243653,-3.088379 -4.379882,0 -7.3278805,3.060303 -2.9199218,3.060303 -2.9199218,7.692871 0,4.6044923 2.9199218,7.664795 2.9479985,3.0322266 7.3278805,3.0322266 z"/>
    <path d="m 37.481689,-25.830078 0,1.459961 q 3.902588,-1.965332 7.7771,-1.965332 5.50293,0 9.124756,3.790283 3.621826,3.790283 3.621826,9.545898 0,5.6713871 -3.734131,9.6020512 -3.734131,3.90258789 -9.124756,3.90258789 -3.73413,0 -7.664795,-1.93725589 l 0,14.6557618 -2.751464,0 0,-39.053955 2.751464,0 z m 0,4.099121 0,17.6037597 q 3.509522,1.9372559 7.131348,1.9372559 4.632568,0 7.496338,-2.9199219 2.86377,-2.9199219 2.86377,-7.6647947 0,-4.716797 -3.032227,-7.7771 -3.032227,-3.088379 -7.664795,-3.088379 -3.312988,0 -6.794434,1.90918 z"/>
    <path d="m 85.997314,-13.869629 -20.355224,0 q -0.08423,0.673828 -0.08423,1.347656 0,4.3237308 3.088379,7.3278812 3.088379,3.0041504 7.299805,3.0041504 4.91333,0 9.602051,-3.8464356 l 0,3.1164551 q -4.436035,3.42529299 -9.938965,3.42529299 -5.587158,0 -9.237061,-3.87451169 -3.649902,-3.8745117 -3.649902,-9.8547364 0,-5.671387 3.369141,-9.377441 3.36914,-3.734131 8.479003,-3.734131 4.801026,0 8.114014,3.36914 3.312988,3.341065 3.312988,9.09668 z m -19.990234,-2.218017 16.733399,0 q -1.459961,-7.552491 -8.170167,-7.552491 -3.172607,0 -5.502929,1.993408 -2.302246,1.965333 -3.060303,5.559083 z"/>
    <path d="m 94.251709,-25.830078 0,4.492187 0.112305,0 q 3.228759,-4.997558 8.507076,-4.997558 4.37989,0 6.99097,2.807617 2.61108,2.807617 2.61108,7.7771 l 0,15.750732 -2.75146,0 0,-14.711914 q 0,-8.928223 -7.01904,-8.928223 -5.137943,0 -8.450931,5.531006 l 0,18.109131 -2.751465,0 0,-25.830078 2.751465,0 z"/>
  </g>
  <g transform="scale(1.118034,0.89442719)">
    <!-- VAULT -->
    <path d="m 126.12505,3.7679064 6.46364,0 -10.16003,29.7731126 -5.87786,0 -10.05903,-29.7731126 6.64542,0 6.46363,22.6025196 6.52423,-22.6025196 z"/>
    <path d="m 140.89561,22.290257 7.55438,0 -3.71659,-11.715336 -3.83779,11.715336 z m 0.38378,-18.5223506 7.0292,0 10.54381,29.7731126 -6.74642,0 -1.91889,-6.120253 -10.96798,0 -2.06028,6.120253 -6.50404,0 10.6246,-29.7731126 z m 3.47421,0 0,0 z"/>
    <path d="m 161.67978,3.7679064 6.32224,0 0,18.3001626 q 0,3.070227 0.72716,4.484146 1.13114,2.504659 4.92852,2.504659 3.77719,0 4.90832,-2.504659 0.72716,-1.413919 0.72716,-4.484146 l 0,-18.3001626 6.32224,0 0,18.3001626 q 0,4.746732 -1.47451,7.392782 -2.74705,4.847725 -10.48321,4.847725 -7.73616,0 -10.5034,-4.847725 -1.47452,-2.64605 -1.47452,-7.392782 l 0,-18.3001626 z m 11.97792,0 0,0 z"/>
    <path d="m 191.57409,3.7679064 6.22124,0 0,24.4204166 14.74517,0 0,5.352696 -20.96641,0 0,-29.7731126 z"/>
    <path d="m 235.04603,3.7679064 0,5.2719013 -8.9077,0 0,24.5012113 -6.26164,0 0,-24.5012113 -8.9481,0 0,-5.2719013 24.11744,0 z"/>
  </g>
</svg>
